<svg xmlns="http://www.w3.org/2000/svg" xmlns:xlink="http://www.w3.org/1999/xlink" viewBox="0 0 241.68 173.34"><defs><style>.cls-1{fill:url(#linear-gradient);}</style><linearGradient id="linear-gradient" x1="-109.02" y1="270.3" x2="132.66" y2="270.3" gradientTransform="matrix(1, 0, 0, -1, 109.02, 356.97)" gradientUnits="userSpaceOnUse"><stop offset="0" stop-color="#770400"/><stop offset="0.43" stop-color="#dc0963"/><stop offset="1" stop-color="#f0b310"/></linearGradient></defs><g id="Layer_2" data-name="Layer 2"><g id="Layer_1-2" data-name="Layer 1"><path class="cls-1" d="M167.94,41.83,59.64,168.62a2.86,2.86,0,0,0,2.16,4.72h31a6.69,6.69,0,0,0,5.32-2.66L183.36,57.6a3.56,3.56,0,0,1,5.68,0l50.08,67.21a1.42,1.42,0,0,0,2.56-.85v-5.83a12.21,12.21,0,0,0-1.91-6.58L197.58,44.14A18.37,18.37,0,0,0,167.94,41.83Zm-3.22-5.73L48.23,170.88a7.17,7.17,0,0,1-5.42,2.46h-38a4.8,4.8,0,0,1-3.47-8.09L148.9,11.49a37.28,37.28,0,0,1,60.58,9.79l31,65.1a12.09,12.09,0,0,1,1.21,5.33V99.9a1.44,1.44,0,0,1-2.66.75L201.8,39.16A23,23,0,0,0,164.72,36.1Z"/></g></g></svg>