<svg xmlns="http://www.w3.org/2000/svg" xmlns:xlink="http://www.w3.org/1999/xlink" viewBox="0 0 253.66 206.62"><defs><style>.cls-1{fill:url(#linear-gradient);}.cls-2{fill:#efb310;}</style><linearGradient id="linear-gradient" x1="-913.76" y1="258.87" x2="-663.94" y2="258.87" gradientTransform="matrix(1, 0, 0, -1, 917.6, 375.87)" gradientUnits="userSpaceOnUse"><stop offset="0" stop-color="#960423"/><stop offset="0.16" stop-color="#b60a3f"/><stop offset="0.34" stop-color="#d40f58"/><stop offset="0.44" stop-color="#df1162"/><stop offset="0.52" stop-color="#e01f5b"/><stop offset="0.65" stop-color="#e44349"/><stop offset="0.84" stop-color="#ea7d2b"/><stop offset="1" stop-color="#efb310"/></linearGradient></defs><title>Asset 1</title><g id="Layer_2" data-name="Layer 2"><g id="Layer_1-2" data-name="Layer 1"><path class="cls-1" d="M177.44,70.62,65.51,201.68a3,3,0,0,0,2.27,4.89h32a7,7,0,0,0,5.51-2.73L193.43,87a3.66,3.66,0,0,1,5.87,0L251,156.42a1.48,1.48,0,0,0,2.67-.88v-6a12.57,12.57,0,0,0-1.95-6.79L208,73.09A18.93,18.93,0,0,0,177.44,70.62Zm-3.35-5.86L53.68,204a7.29,7.29,0,0,1-5.6,2.58H8.78a4.93,4.93,0,0,1-3.55-8.34l152.51-159a38.57,38.57,0,0,1,62.65,10.13l32,67.33a12.7,12.7,0,0,1,1.23,5.5v8.49a1.46,1.46,0,0,1-2.72.77L212.41,67.9A23.74,23.74,0,0,0,174.09,64.76Z"/><path class="cls-2" d="M47.46,104.09l-2.88,3-6-8.68a1.28,1.28,0,0,0-2.29.41l-2.43,9.55a.94.94,0,0,0,.13.73l3.55,5.28-2.07,2.14a.91.91,0,0,0-.1,1.14l3.15,4.59a.9.9,0,0,0,1.4.13l1.76-1.82,5.19,7.67a32.18,32.18,0,0,0,2.57,3.48,6.74,6.74,0,0,0,4.47,1.82c1.8.09,3.71-.89,5.68-2.93a51.16,51.16,0,0,0,3.84-4.77.89.89,0,0,0,0-1l-3.05-4.5a.89.89,0,0,0-1.5,0,13.68,13.68,0,0,1-1.1,1.45c-1.09,1.13-2.09,1.3-2.94.47a4,4,0,0,1-.78-1l-5.38-7.92L51.88,110a.9.9,0,0,0,.1-1.13l-3.12-4.63A.9.9,0,0,0,47.46,104.09ZM69.12,51.56a1.23,1.23,0,0,0-2.2.4l-2.34,9.21a.86.86,0,0,0,.06.59.8.8,0,0,0,.11.23L88.91,97.75a.91.91,0,0,0,1.4.13l5.8-6a.91.91,0,0,0,.08-1.15Zm88.62-49.9A9.69,9.69,0,0,0,150.36.21q-4.28.89-8.44,5.2-5.83,6-5.59,12.69a15.93,15.93,0,0,0,5,11.3q8.26,8,18-2.12,8.18-8.46,4.16-17.59a.9.9,0,0,0-1.41-.33l-5.95,5a.89.89,0,0,0-.26,1c1,2.76.57,5.06-1.18,6.88a4.85,4.85,0,0,1-3,1.42,4,4,0,0,1-3.36-1.26,11.63,11.63,0,0,1-3.33-6,6.46,6.46,0,0,1,1.82-6.2C148.55,8.43,150.26,8,152,8.86a.89.89,0,0,0,1.11-.22L158,3A1,1,0,0,0,157.74,1.66Zm-35.13,10-5.8,6a.88.88,0,0,0-.08,1.14l3,4.35a.91.91,0,0,0,1.41.13l5.77-6a.89.89,0,0,0,.1-1.13l-3-4.36A.93.93,0,0,0,122.61,11.68Zm5.83,8.55-5.83,6a.9.9,0,0,0-.1,1.13l14.09,21a.9.9,0,0,0,1.4.13l5.82-6a.89.89,0,0,0,.09-1.13l-14.07-21A.91.91,0,0,0,128.44,20.23ZM118,31l-2.88,3-6-8.67a1.28,1.28,0,0,0-2.29.41l-2.43,9.55a.92.92,0,0,0,.13.72l3.55,5.28-2.07,2.15a.89.89,0,0,0-.1,1.13l3.15,4.6a.9.9,0,0,0,1.4.12l1.76-1.81,5.19,7.66A32.18,32.18,0,0,0,120,58.6a6.73,6.73,0,0,0,4.47,1.83c1.8.08,3.71-.89,5.68-2.94A51.16,51.16,0,0,0,134,52.72a.89.89,0,0,0,0-1L131,47.18a.9.9,0,0,0-1.5,0,12.67,12.67,0,0,1-1.1,1.45c-1.09,1.13-2.09,1.3-2.94.47a4,4,0,0,1-.78-1l-5.38-7.92,3.18-3.29a.9.9,0,0,0,.1-1.13l-3.12-4.63A.91.91,0,0,0,118,31ZM103,60.09a3.75,3.75,0,0,0-3-1.24,4.43,4.43,0,0,0-2.81,1.43,5.14,5.14,0,0,0-1.39,3.46,8.84,8.84,0,0,0,1.36,4.67l6.44-6.68a.72.72,0,0,0,.06-.94A4,4,0,0,0,103,60.09Zm-.24-9.54a10.78,10.78,0,0,1,7.93,3.19,30.41,30.41,0,0,1,2.91,3.57.91.91,0,0,1-.08,1.18l-13.51,14c2.75,2.26,5.13,2.33,7.14.26a5.5,5.5,0,0,0,1.6-4.58.92.92,0,0,1,.31-.8l6-5.14a.93.93,0,0,1,1.5.51,12.72,12.72,0,0,1-.33,6.65,20.38,20.38,0,0,1-5,7.67Q105.84,82.7,101,82.64A12.18,12.18,0,0,1,92.46,79a15,15,0,0,1-3.73-5.75,15.47,15.47,0,0,1-.87-6.68,15.14,15.14,0,0,1,1.57-5.74A21.48,21.48,0,0,1,93.09,56Q98.25,50.64,102.8,50.55ZM69.18,83.38a6.24,6.24,0,0,1,4.49,1.84,37.88,37.88,0,0,1,3.83,5.09L85.37,102a.89.89,0,0,1-.09,1.13l-5.8,6a.9.9,0,0,1-1.4-.12l-6.42-9.52a49,49,0,0,0-3.06-4.28c-1-1-2-1-3-.08a5,5,0,0,0-1.21,4.3,14.79,14.79,0,0,0,2.62,6l6.13,9.17a.89.89,0,0,1-.1,1.13l-5.83,6a.91.91,0,0,1-1.4-.13L41.73,85.83a1.18,1.18,0,0,1-.11-.27.93.93,0,0,1,0-.57l2.33-9.21a1.23,1.23,0,0,1,2.21-.4l14.09,20h.13A12.49,12.49,0,0,1,64.14,86,7.15,7.15,0,0,1,69.18,83.38ZM10.09,127.89l4.6,47.72a.82.82,0,0,0,1.4.49l6.21-6.43a1.88,1.88,0,0,0,.51-1.62L16.5,128.18a1.31,1.31,0,0,1,1.5-1.47l23.47,3a.41.41,0,0,0,.34-.7l-1.2-1.16a3.45,3.45,0,0,0-1.74-.91L16.5,122.21A5.28,5.28,0,0,0,10.09,127.89Zm-1.83-.48,4.6,51A2,2,0,0,1,12.3,180l-7.58,7.85A1.37,1.37,0,0,1,2.36,187L0,125.77a10.73,10.73,0,0,1,14.13-10.58l19.65,6.59a3.37,3.37,0,0,1,1.35.8l1.7,1.64a.42.42,0,0,1-.38.7L16.3,120.33A6.65,6.65,0,0,0,8.26,127.41Z"/></g></g></svg>